<?xml version="1.0" encoding="utf-8"?>
<!-- Generator: Adobe Illustrator 28.0.0, SVG Export Plug-In . SVG Version: 6.00 Build 0)  -->
<svg version="1.1" id="Layer_1" xmlns="http://www.w3.org/2000/svg" xmlns:xlink="http://www.w3.org/1999/xlink" x="0px" y="0px"
	 viewBox="0 0 64 64" style="enable-background:new 0 0 64 64;" xml:space="preserve">
<style type="text/css">
	.st0{fill:#59B6F8;}
	.st1{fill:#232F3E;}
	.st2{fill-rule:evenodd;clip-rule:evenodd;fill:#232F3E;}
</style>
<path class="st0" d="M34.694,38.0067c7.5467,0,13.6667-6.12,13.6667-13.6667s-6.12-13.6667-13.6667-13.6667
	s-13.6667,6.12-13.6667,13.6667S27.1473,38.0067,34.694,38.0067z"/>
<path class="st1" d="M55.0949,47.5334C54.8349,47.1867,48.6015,39,40.6949,39h-12c-3.7734,0-4.56,2.16-4.6534,3.6667l-8.7-4.8333
	c0,0-0.0333-0.0134-0.0533-0.02c-0.0133,0-0.0267-0.02-0.0467-0.0267c-1.2533-0.5667-2.7333-0.62-3.96-0.1267
	c-1.0333,0.4134-1.8266,1.18-2.2333,2.1667c-1,2.44-0.0333,5.08,2.2933,6.32h0.0067l11.28,6.6333c0.6733,0.44,1.8933,0.84,2.66,0.88
	h10.7c2.6667,0.14,4.4933,0.7067,5.9133,1.8267c0.2334,0.18,0.42,0.42,0.5534,0.6867l0.3733,0.7533
	c0.16,0.32,0.4467,0.5667,0.7867,0.6733c0.1333,0.04,0.2666,0.06,0.4066,0.06c0.2134,0,0.4334-0.0533,0.6267-0.1533
	c4.3267-2.3,7.9333-5.1867,10.42-8.3533c0.3733-0.4734,0.38-1.14,0.02-1.6267h0.0067V47.5334z M44.5682,54.5067
	c-0.2733-0.42-0.62-0.7933-1.0133-1.1067c-2.4134-1.9133-5.26-2.2866-7.4667-2.4H25.3949c-0.3134-0.0266-1.0467-0.28-1.3667-0.48
	l-11.3333-6.6666c0,0-0.0267,0-0.0334-0.0134c-0.0133-0.0066-0.02-0.0133-0.0333-0.02c-1.3267-0.68-1.5067-2.0133-1.1133-2.9733
	c0.1333-0.32,0.3866-0.56,0.7533-0.7067c0.5533-0.22,1.26-0.1933,1.8533,0.0734L26.0482,46.84c0.2,0.1134,0.42,0.1667,0.6467,0.1667
	h1.3333c0.06,0,0.12-0.0133,0.18-0.02c0.1533,0,0.3,0.02,0.4667,0.02l5.72,0.0867c0.7466,0,1.34-0.58,1.3533-1.3134
	c0.0133-0.7333-0.58-1.34-1.3133-1.3533l-5.74-0.0867c-2,0-2-0.7066-2-1.3333c0-0.6267,0-1.3333,2-1.3333h12
	c5.26,0,9.92,4.74,11.6066,6.6666c-1.98,2.28-4.62,4.3867-7.7266,6.18v-0.0133H44.5682z"/>
<path class="st2" d="M31.994,9.0068c-6.7933,0-12.3,5.5066-12.3,12.3001c0,6.7933,5.5067,12.3,12.3,12.3s12.3-5.5067,12.3-12.3
	C44.294,14.5134,38.7873,9.0068,31.994,9.0068z M17.0273,21.3068c0-8.2667,6.7-14.9667,14.9667-14.9667s14.9667,6.7,14.9667,14.9667
	c0,8.2666-6.7,14.9666-14.9667,14.9666S17.0273,29.5734,17.0273,21.3068z"/>
<path class="st2" d="M32.0196,11.6667c0.7333,0,1.3333,0.6,1.3333,1.3334v1.2266c0.5534,0.1134,1.0534,0.3134,1.5267,0.6134
	c0.72,0.46,1.3,1.1066,1.8533,1.7733c0.4667,0.5667,0.3867,1.4067-0.1799,1.88c-0.5667,0.4667-1.4067,0.3867-1.8801-0.18
	c-0.54-0.6467-0.8866-1.0067-1.2266-1.22c-0.2867-0.18-0.6267-0.3-1.22-0.3c-1.3134,0-2.06,0.8933-2.06,1.6267
	c0,0.46,0.1466,0.7333,0.4,0.9533c0.3066,0.2667,0.88,0.5333,1.86,0.6867c1.2333,0.18,2.3666,0.58,3.2133,1.3
	c0.8933,0.7533,1.3933,1.7933,1.3933,3.0066c0,2.1667-1.72,3.7267-3.6866,4.1667v1.14c0,0.7333-0.6,1.3333-1.3333,1.3333
	c-0.7334,0-1.3334-0.6-1.3334-1.3333v-1.1267c-0.4-0.0733-0.7867-0.1866-1.1667-0.3533c-0.8533-0.3867-1.5266-1-2.1999-1.7867
	c-0.48-0.56-0.4134-1.4,0.1466-1.88c0.56-0.48,1.4-0.4133,1.88,0.1467c0.56,0.6533,0.9267,0.94,1.2667,1.0867
	c0.34,0.1533,0.78,0.2333,1.6133,0.2333c1.36,0,2.1467-0.9333,2.1467-1.6267c0-0.42-0.1467-0.7133-0.4467-0.9666
	c-0.34-0.2867-0.94-0.56-1.8867-0.7h-0.0066h-0.0067c-1.24-0.1934-2.36-0.5867-3.1933-1.3c-0.8867-0.76-1.3267-1.7934-1.3267-2.9734
	c0-1.98,1.4067-3.4933,3.18-4.0533v-0.0267v-1.3333c0-0.7333,0.6-1.3333,1.3334-1.3333L32.0196,11.6667z"/>
<path class="st1" d="M42.6667,13.3335H42v0.6667h0.6667V13.3335z"/>
</svg>
