<?xml version="1.0" encoding="utf-8"?>
<!-- Generator: Adobe Illustrator 28.0.0, SVG Export Plug-In . SVG Version: 6.00 Build 0)  -->
<svg version="1.1" id="Layer_1" xmlns="http://www.w3.org/2000/svg" xmlns:xlink="http://www.w3.org/1999/xlink" x="0px" y="0px"
	 viewBox="0 0 64 64" style="enable-background:new 0 0 64 64;" xml:space="preserve">
<style type="text/css">
	.st0{fill:#59B6F8;}
	.st1{fill:#232F3E;}
</style>
<path class="st0" d="M26.7623,54.7313c-0.1725,0-0.3344-0.0669-0.4559-0.1878L15.7669,44.0033
	c-0.125-0.1256-0.1937-0.2981-0.1896-0.4741c0.0047-0.1761,0.0828-0.3451,0.2148-0.4647l0.9008-0.8122
	c0.8772-0.791,2.0022-1.2276,3.1675-1.2276c0.453,0,0.9066,0.0657,1.3479,0.1948l1.2886,0.3756l7.7146-9.6717l-12.7107-7.3409
	c-0.2623-0.1514-0.3849-0.4706-0.2917-0.7593l0.091-0.2805c0.0332-1.2218,0.9648-2.3985,3.0332-2.3985
	c0.3022,0,0.6068,0.0293,0.9055,0.0869l14.3754,2.9577l11.7941-7.7886l0.0546-0.0458c0.8186-0.6796,1.866-1.0551,2.9493-1.0551
	c1.2528,0,2.4247,0.4812,3.299,1.3556c1.7158,1.7158,1.8455,4.4022,0.301,6.2482l-4.6789,7.4301l2,16.3333
	c0.3334,3.1948-1.8424,5.7978-4.1268,6.536l-0.2794,0.0891c-0.0668,0.0212-0.1338,0.0317-0.2012,0.0317
	c-0.2295,0-0.4436-0.1232-0.5581-0.3216l-7.3661-12.4793l-10.0883,7.2904l0.3761,1.2875c0.4654,1.5938,0.0792,3.2826-1.0333,4.516
	l-0.8133,0.9014c-0.1156,0.1279-0.28,0.2054-0.4536,0.2136H26.7623z"/>
<path class="st1" d="M51.5507,12.4165c-1.1257-1.126-2.6322-1.7461-4.2416-1.7461c-1.3926,0-2.7415,0.4837-3.8053,1.3662
	l-9.7819,6.5449l-13.8444-2.8486c-0.3822-0.0736-0.7715-0.111-1.1582-0.111c-2.6491,0-4.9766,1.694-5.7904,4.2136l-0.0918,0.2828
	c-0.2851,0.8828,0.0912,1.86,0.8939,2.3233l11.3691,6.5661l-0.5863,0.735l-5.6051,7.0267l-0.4296-0.1253
	c-2.0196-0.5905-4.2234-0.083-5.7826,1.3229l-0.901,0.8128c-0.4017,0.3629-0.64,0.8802-0.6537,1.4193
	c-0.0143,0.5384,0.1959,1.0664,0.5794,1.4514l4.3823,4.3824l-1.3882,1.3882c-0.5208,0.5205-0.5208,1.3649,0,1.8854
	c0.2604,0.2604,0.6016,0.3906,0.9428,0.3906s0.6822-0.1302,0.9427-0.3906l1.3881-1.3882l4.2721,4.2722
	c0.3731,0.3731,0.8698,0.5785,1.3985,0.5785c0.0208,0,0.0683-0.0003,0.0892-0.0013c0.5266-0.0248,1.0306-0.2627,1.3815-0.6524
	l0.8131-0.9014c1.4245-1.5791,1.9193-3.7408,1.3236-5.7832l-0.1256-0.4288l7.7632-6.1926l6.6222,11.4278
	c0.4538,0.7858,1.4264,1.1754,2.3203,0.8938l0.2839-0.0908c2.9244-0.9453,4.6888-3.9332,4.1035-6.9518L45.418,29.6391l6.5501-9.219
	C53.9213,18.0418,53.7453,14.6108,51.5507,12.4165z M49.8866,18.7521c-0.0221,0.027-0.0436,0.0546-0.0645,0.0833l-6.9095,9.7256
	c-0.2109,0.2975-0.291,0.6689-0.2213,1.0273l2.9251,15.0092c0.3125,1.6116-0.5677,3.2086-2.0638,3.8174l-6.5403-11.2871
	l1.774-1.4151c0.5756-0.4593,0.67-1.2982,0.211-1.8736c-0.459-0.5759-1.2988-0.6696-1.8737-0.211l-2.6705,2.1302
	c-0.0006,0.0006-0.0014,0.0008-0.002,0.0014l-9.6719,7.7154c-0.0956,0.0763-0.1728,0.1658-0.2415,0.2602
	c-0.017,0.0231-0.0324,0.0462-0.0478,0.0702c-0.061,0.0962-0.1132,0.1966-0.1474,0.3032c-0.0009,0.0028-0.0026,0.0052-0.0034,0.008
	c-0.0344,0.1096-0.0493,0.2234-0.0548,0.3377c-0.0014,0.029-0.0019,0.0572-0.0014,0.0863c0.002,0.1162,0.0144,0.2322,0.047,0.3455
	c0.0004,0.0017,0.0002,0.0035,0.0007,0.0053l0.3763,1.2868c0.3346,1.1474,0.0567,2.362-0.7441,3.2493l-0.3288,0.3649l-3.7596-3.7596
	l1.7459-1.7459c0.5208-0.5205,0.5208-1.3649,0-1.8854c-0.5208-0.5208-1.3646-0.5208-1.8854,0l-1.7459,1.7459l-3.8713-3.8712
	l0.3646-0.3288c0.8796-0.7933,2.1048-1.0772,3.25-0.7435l1.2884,0.3757c0.0941,0.0276,0.1897,0.0324,0.285,0.0388
	c0.0294,0.0019,0.058,0.0146,0.0874,0.0146c0.0036,0,0.0072-0.0012,0.0108-0.0012c0.0179-0.0002,0.0348-0.005,0.0526-0.0058
	c0.0998-0.0048,0.1979-0.021,0.2945-0.0479c0.0347-0.0097,0.0674-0.0221,0.1013-0.0346c0.0812-0.0298,0.1583-0.0678,0.2332-0.1135
	c0.0288-0.0176,0.0578-0.0329,0.0853-0.0527c0.0965-0.0696,0.1876-0.1487,0.2653-0.2463l9.8913-12.4004
	c0.459-0.5756,0.3646-1.4144-0.2109-1.8737c-0.5742-0.4587-1.4141-0.3649-1.8737,0.2109l-1.4609,1.8316L15.554,20.4153
	c0.5221-1.2822,1.7637-2.1266,3.1653-2.1266c0.2175,0,0.4369,0.0211,0.6361,0.0596l14.3757,2.9576
	c0.3502,0.0723,0.7128,0.0014,1.0104-0.1979l10.3053-6.8952c0.0397-0.0267,0.0788-0.0557,0.1159-0.0869l0.0488-0.041
	c0.5807-0.4821,1.3255-0.7478,2.0976-0.7478c0.8972,0,1.7338,0.3428,2.3562,0.9652C50.8899,15.5263,50.9849,17.4393,49.8866,18.7521
	z"/>
<path class="st1" d="M13.1556,24.4863c-0.5208-0.5208-1.3646-0.5208-1.8854,0l-4.1999,4.1995c-0.5208,0.5206-0.5208,1.365,0,1.8854
	c0.2604,0.2604,0.6015,0.3906,0.9427,0.3906c0.3412,0,0.6823-0.1302,0.9427-0.3906l4.1998-4.1995
	C13.6764,25.8512,13.6764,25.0068,13.1556,24.4863z"/>
<path class="st1" d="M14.8152,33.6826c0.3411,0,0.6823-0.1302,0.9427-0.3906l2.8392-2.8392c0.5208-0.5206,0.5208-1.365,0-1.8854
	c-0.5208-0.5208-1.3646-0.5208-1.8854,0l-2.8392,2.8392c-0.5208,0.5205-0.5208,1.3649,0,1.8854
	C14.1329,33.5524,14.474,33.6826,14.8152,33.6826z"/>
<path class="st1" d="M37.5792,50.8535l-4.1998,4.1995c-0.5208,0.5206-0.5208,1.365,0,1.8854
	c0.2604,0.2604,0.6015,0.3906,0.9427,0.3906c0.3412,0,0.6823-0.1302,0.9427-0.3906l4.1999-4.1995
	c0.5208-0.5205,0.5208-1.3649,0-1.8854C38.9439,50.3327,38.1,50.3327,37.5792,50.8535z"/>
<path class="st1" d="M35.3833,45.4121c-0.5208-0.5208-1.3646-0.5208-1.8854,0l-2.8392,2.8392c-0.5208,0.5205-0.5208,1.3649,0,1.8854
	c0.2604,0.2604,0.6015,0.3906,0.9427,0.3906s0.6823-0.1302,0.9427-0.3906l2.8392-2.8392
	C35.9041,46.777,35.9041,45.9326,35.3833,45.4121z"/>
</svg>
